<svg width="12" height="12" viewBox="0 0 12 12" fill="none" xmlns="http://www.w3.org/2000/svg">
<path fill-rule="evenodd" clip-rule="evenodd" d="M0.383495 11.483C-0.127355 10.9721 -0.127355 10.1439 0.383495 9.63296L9.63332 0.383138C10.1442 -0.127712 10.9724 -0.127712 11.4833 0.383138C11.9941 0.893998 11.9941 1.72226 11.4833 2.23311L2.23346 11.483C1.72262 11.9938 0.894355 11.9938 0.383495 11.483Z" fill="white"/>
<path fill-rule="evenodd" clip-rule="evenodd" d="M0.383145 0.383327C0.893995 -0.127523 1.72226 -0.127523 2.23311 0.383327L11.4829 9.63316C11.9938 10.1441 11.9938 10.9723 11.4829 11.4832C10.9721 11.994 10.1438 11.994 9.63293 11.4832L0.383145 2.2333C-0.127715 1.72245 -0.127715 0.894187 0.383145 0.383327Z" fill="white"/>
</svg>
